<mxfile host="app.diagrams.net" agent="Mozilla/5.0 (Windows NT 10.0; Win64; x64) AppleWebKit/537.36 (KHTML, like Gecko) Chrome/129.0.0.0 Safari/537.36" version="24.7.16">
  <diagram name="Page-1" id="6aVdZt-CdFbvXdX6Elwi">
    <mxGraphModel dx="637" dy="372" grid="1" gridSize="10" guides="1" tooltips="1" connect="1" arrows="1" fold="1" page="1" pageScale="1" pageWidth="827" pageHeight="1169" math="0" shadow="0">
      <root>
        <mxCell id="0" />
        <mxCell id="1" parent="0" />
        <mxCell id="AM0Rvv7pv_QPMWKXjuEK-30" style="edgeStyle=orthogonalEdgeStyle;rounded=0;orthogonalLoop=1;jettySize=auto;html=1;exitX=0.5;exitY=1;exitDx=0;exitDy=0;entryX=0.5;entryY=0;entryDx=0;entryDy=0;" edge="1" parent="1" source="AM0Rvv7pv_QPMWKXjuEK-1" target="AM0Rvv7pv_QPMWKXjuEK-25">
          <mxGeometry relative="1" as="geometry" />
        </mxCell>
        <mxCell id="AM0Rvv7pv_QPMWKXjuEK-1" value="" style="rounded=0;whiteSpace=wrap;html=1;" vertex="1" parent="1">
          <mxGeometry x="270" y="160" width="80" height="40" as="geometry" />
        </mxCell>
        <mxCell id="AM0Rvv7pv_QPMWKXjuEK-2" value="API Gateway" style="text;html=1;align=center;verticalAlign=middle;whiteSpace=wrap;rounded=0;" vertex="1" parent="1">
          <mxGeometry x="270" y="130" width="80" height="30" as="geometry" />
        </mxCell>
        <mxCell id="AM0Rvv7pv_QPMWKXjuEK-7" value="Lambda" style="text;html=1;align=center;verticalAlign=middle;whiteSpace=wrap;rounded=0;" vertex="1" parent="1">
          <mxGeometry x="280" y="320" width="60" height="20" as="geometry" />
        </mxCell>
        <mxCell id="AM0Rvv7pv_QPMWKXjuEK-8" value="" style="rounded=0;whiteSpace=wrap;html=1;" vertex="1" parent="1">
          <mxGeometry x="110" y="270" width="80" height="40" as="geometry" />
        </mxCell>
        <mxCell id="AM0Rvv7pv_QPMWKXjuEK-9" value="DynamoDB&amp;nbsp;" style="text;html=1;align=center;verticalAlign=middle;whiteSpace=wrap;rounded=0;" vertex="1" parent="1">
          <mxGeometry x="130" y="235" width="60" height="30" as="geometry" />
        </mxCell>
        <mxCell id="AM0Rvv7pv_QPMWKXjuEK-17" value="" style="rounded=0;whiteSpace=wrap;html=1;" vertex="1" parent="1">
          <mxGeometry x="450" y="265" width="80" height="40" as="geometry" />
        </mxCell>
        <mxCell id="AM0Rvv7pv_QPMWKXjuEK-18" value="S3" style="text;html=1;align=center;verticalAlign=middle;whiteSpace=wrap;rounded=0;" vertex="1" parent="1">
          <mxGeometry x="450" y="235" width="80" height="30" as="geometry" />
        </mxCell>
        <mxCell id="AM0Rvv7pv_QPMWKXjuEK-20" value="" style="rounded=0;whiteSpace=wrap;html=1;" vertex="1" parent="1">
          <mxGeometry x="560" y="265" width="80" height="40" as="geometry" />
        </mxCell>
        <mxCell id="AM0Rvv7pv_QPMWKXjuEK-21" value="CDN" style="text;html=1;align=center;verticalAlign=middle;whiteSpace=wrap;rounded=0;" vertex="1" parent="1">
          <mxGeometry x="560" y="235" width="80" height="30" as="geometry" />
        </mxCell>
        <mxCell id="AM0Rvv7pv_QPMWKXjuEK-22" value="" style="endArrow=classic;html=1;rounded=0;entryX=0;entryY=0.5;entryDx=0;entryDy=0;" edge="1" parent="1" target="AM0Rvv7pv_QPMWKXjuEK-20">
          <mxGeometry width="50" height="50" relative="1" as="geometry">
            <mxPoint x="530" y="285" as="sourcePoint" />
            <mxPoint x="580" y="235" as="targetPoint" />
          </mxGeometry>
        </mxCell>
        <mxCell id="AM0Rvv7pv_QPMWKXjuEK-26" value="" style="endArrow=none;html=1;rounded=0;entryX=0;entryY=0.5;entryDx=0;entryDy=0;" edge="1" parent="1" target="AM0Rvv7pv_QPMWKXjuEK-25">
          <mxGeometry width="50" height="50" relative="1" as="geometry">
            <mxPoint x="335" y="290" as="sourcePoint" />
            <mxPoint x="270" y="275" as="targetPoint" />
          </mxGeometry>
        </mxCell>
        <mxCell id="AM0Rvv7pv_QPMWKXjuEK-28" style="edgeStyle=orthogonalEdgeStyle;rounded=0;orthogonalLoop=1;jettySize=auto;html=1;exitX=0;exitY=0.5;exitDx=0;exitDy=0;entryX=1;entryY=0.5;entryDx=0;entryDy=0;" edge="1" parent="1" source="AM0Rvv7pv_QPMWKXjuEK-25" target="AM0Rvv7pv_QPMWKXjuEK-8">
          <mxGeometry relative="1" as="geometry" />
        </mxCell>
        <mxCell id="AM0Rvv7pv_QPMWKXjuEK-29" style="edgeStyle=orthogonalEdgeStyle;rounded=0;orthogonalLoop=1;jettySize=auto;html=1;exitX=1;exitY=0.5;exitDx=0;exitDy=0;entryX=0;entryY=0.5;entryDx=0;entryDy=0;" edge="1" parent="1" source="AM0Rvv7pv_QPMWKXjuEK-25" target="AM0Rvv7pv_QPMWKXjuEK-17">
          <mxGeometry relative="1" as="geometry" />
        </mxCell>
        <mxCell id="AM0Rvv7pv_QPMWKXjuEK-25" value="" style="rounded=0;whiteSpace=wrap;html=1;" vertex="1" parent="1">
          <mxGeometry x="280" y="265" width="80" height="40" as="geometry" />
        </mxCell>
      </root>
    </mxGraphModel>
  </diagram>
</mxfile>
